<mxfile host="app.diagrams.net" agent="Mozilla/5.0 (Windows NT 10.0; Win64; x64) AppleWebKit/537.36 (KHTML, like Gecko) Chrome/131.0.0.0 Safari/537.36 Edg/131.0.0.0" version="25.0.3">
  <diagram name="페이지-1" id="UAmTa2CW4CneEb9_r99w">
    <mxGraphModel dx="1199" dy="781" grid="0" gridSize="10" guides="1" tooltips="1" connect="1" arrows="1" fold="1" page="0" pageScale="1" pageWidth="827" pageHeight="1169" math="0" shadow="0">
      <root>
        <mxCell id="0" />
        <mxCell id="1" parent="0" />
        <mxCell id="6w6eod8Z04sfT0RVPfZF-1" value="customer" style="shape=table;startSize=26;container=1;collapsible=1;childLayout=tableLayout;fixedRows=1;rowLines=0;fontStyle=1;align=center;resizeLast=1;html=1;" parent="1" vertex="1">
          <mxGeometry x="-174" y="286" width="285" height="181.75" as="geometry" />
        </mxCell>
        <mxCell id="6w6eod8Z04sfT0RVPfZF-2" value="" style="shape=tableRow;horizontal=0;startSize=0;swimlaneHead=0;swimlaneBody=0;fillColor=none;collapsible=0;dropTarget=0;points=[[0,0.5],[1,0.5]];portConstraint=eastwest;top=0;left=0;right=0;bottom=1;" parent="6w6eod8Z04sfT0RVPfZF-1" vertex="1">
          <mxGeometry y="26" width="285" height="30" as="geometry" />
        </mxCell>
        <mxCell id="6w6eod8Z04sfT0RVPfZF-3" value="PK" style="shape=partialRectangle;connectable=0;fillColor=none;top=0;left=0;bottom=0;right=0;fontStyle=1;overflow=hidden;whiteSpace=wrap;html=1;" parent="6w6eod8Z04sfT0RVPfZF-2" vertex="1">
          <mxGeometry width="30" height="30" as="geometry">
            <mxRectangle width="30" height="30" as="alternateBounds" />
          </mxGeometry>
        </mxCell>
        <mxCell id="6w6eod8Z04sfT0RVPfZF-4" value="cus_id varchar(50)" style="shape=partialRectangle;connectable=0;fillColor=none;top=0;left=0;bottom=0;right=0;align=left;spacingLeft=6;fontStyle=5;overflow=hidden;whiteSpace=wrap;html=1;" parent="6w6eod8Z04sfT0RVPfZF-2" vertex="1">
          <mxGeometry x="30" width="255" height="30" as="geometry">
            <mxRectangle width="255" height="30" as="alternateBounds" />
          </mxGeometry>
        </mxCell>
        <mxCell id="6w6eod8Z04sfT0RVPfZF-5" value="" style="shape=tableRow;horizontal=0;startSize=0;swimlaneHead=0;swimlaneBody=0;fillColor=none;collapsible=0;dropTarget=0;points=[[0,0.5],[1,0.5]];portConstraint=eastwest;top=0;left=0;right=0;bottom=0;" parent="6w6eod8Z04sfT0RVPfZF-1" vertex="1">
          <mxGeometry y="56" width="285" height="32" as="geometry" />
        </mxCell>
        <mxCell id="6w6eod8Z04sfT0RVPfZF-6" value="" style="shape=partialRectangle;connectable=0;fillColor=none;top=0;left=0;bottom=0;right=0;editable=1;overflow=hidden;whiteSpace=wrap;html=1;" parent="6w6eod8Z04sfT0RVPfZF-5" vertex="1">
          <mxGeometry width="30" height="32" as="geometry">
            <mxRectangle width="30" height="32" as="alternateBounds" />
          </mxGeometry>
        </mxCell>
        <mxCell id="6w6eod8Z04sfT0RVPfZF-7" value="password varchar(100) not null" style="shape=partialRectangle;connectable=0;fillColor=none;top=0;left=0;bottom=0;right=0;align=left;spacingLeft=6;overflow=hidden;whiteSpace=wrap;html=1;" parent="6w6eod8Z04sfT0RVPfZF-5" vertex="1">
          <mxGeometry x="30" width="255" height="32" as="geometry">
            <mxRectangle width="255" height="32" as="alternateBounds" />
          </mxGeometry>
        </mxCell>
        <mxCell id="6w6eod8Z04sfT0RVPfZF-8" value="" style="shape=tableRow;horizontal=0;startSize=0;swimlaneHead=0;swimlaneBody=0;fillColor=none;collapsible=0;dropTarget=0;points=[[0,0.5],[1,0.5]];portConstraint=eastwest;top=0;left=0;right=0;bottom=0;" parent="6w6eod8Z04sfT0RVPfZF-1" vertex="1">
          <mxGeometry y="88" width="285" height="30" as="geometry" />
        </mxCell>
        <mxCell id="6w6eod8Z04sfT0RVPfZF-9" value="" style="shape=partialRectangle;connectable=0;fillColor=none;top=0;left=0;bottom=0;right=0;editable=1;overflow=hidden;whiteSpace=wrap;html=1;" parent="6w6eod8Z04sfT0RVPfZF-8" vertex="1">
          <mxGeometry width="30" height="30" as="geometry">
            <mxRectangle width="30" height="30" as="alternateBounds" />
          </mxGeometry>
        </mxCell>
        <mxCell id="6w6eod8Z04sfT0RVPfZF-10" value="name varchar(100) not null" style="shape=partialRectangle;connectable=0;fillColor=none;top=0;left=0;bottom=0;right=0;align=left;spacingLeft=6;overflow=hidden;whiteSpace=wrap;html=1;" parent="6w6eod8Z04sfT0RVPfZF-8" vertex="1">
          <mxGeometry x="30" width="255" height="30" as="geometry">
            <mxRectangle width="255" height="30" as="alternateBounds" />
          </mxGeometry>
        </mxCell>
        <mxCell id="6w6eod8Z04sfT0RVPfZF-11" value="" style="shape=tableRow;horizontal=0;startSize=0;swimlaneHead=0;swimlaneBody=0;fillColor=none;collapsible=0;dropTarget=0;points=[[0,0.5],[1,0.5]];portConstraint=eastwest;top=0;left=0;right=0;bottom=0;" parent="6w6eod8Z04sfT0RVPfZF-1" vertex="1">
          <mxGeometry y="118" width="285" height="30" as="geometry" />
        </mxCell>
        <mxCell id="6w6eod8Z04sfT0RVPfZF-12" value="" style="shape=partialRectangle;connectable=0;fillColor=none;top=0;left=0;bottom=0;right=0;editable=1;overflow=hidden;whiteSpace=wrap;html=1;" parent="6w6eod8Z04sfT0RVPfZF-11" vertex="1">
          <mxGeometry width="30" height="30" as="geometry">
            <mxRectangle width="30" height="30" as="alternateBounds" />
          </mxGeometry>
        </mxCell>
        <mxCell id="6w6eod8Z04sfT0RVPfZF-13" value="phone varchar(15) not null\" style="shape=partialRectangle;connectable=0;fillColor=none;top=0;left=0;bottom=0;right=0;align=left;spacingLeft=6;overflow=hidden;whiteSpace=wrap;html=1;" parent="6w6eod8Z04sfT0RVPfZF-11" vertex="1">
          <mxGeometry x="30" width="255" height="30" as="geometry">
            <mxRectangle width="255" height="30" as="alternateBounds" />
          </mxGeometry>
        </mxCell>
        <mxCell id="6w6eod8Z04sfT0RVPfZF-21" style="shape=tableRow;horizontal=0;startSize=0;swimlaneHead=0;swimlaneBody=0;fillColor=none;collapsible=0;dropTarget=0;points=[[0,0.5],[1,0.5]];portConstraint=eastwest;top=0;left=0;right=0;bottom=0;" parent="6w6eod8Z04sfT0RVPfZF-1" vertex="1">
          <mxGeometry y="148" width="285" height="30" as="geometry" />
        </mxCell>
        <mxCell id="6w6eod8Z04sfT0RVPfZF-22" style="shape=partialRectangle;connectable=0;fillColor=none;top=0;left=0;bottom=0;right=0;editable=1;overflow=hidden;whiteSpace=wrap;html=1;" parent="6w6eod8Z04sfT0RVPfZF-21" vertex="1">
          <mxGeometry width="30" height="30" as="geometry">
            <mxRectangle width="30" height="30" as="alternateBounds" />
          </mxGeometry>
        </mxCell>
        <mxCell id="6w6eod8Z04sfT0RVPfZF-23" value="balance int default 0" style="shape=partialRectangle;connectable=0;fillColor=none;top=0;left=0;bottom=0;right=0;align=left;spacingLeft=6;overflow=hidden;whiteSpace=wrap;html=1;" parent="6w6eod8Z04sfT0RVPfZF-21" vertex="1">
          <mxGeometry x="30" width="255" height="30" as="geometry">
            <mxRectangle width="255" height="30" as="alternateBounds" />
          </mxGeometry>
        </mxCell>
        <mxCell id="6w6eod8Z04sfT0RVPfZF-24" value="products" style="shape=table;startSize=30;container=1;collapsible=1;childLayout=tableLayout;fixedRows=1;rowLines=0;fontStyle=1;align=center;resizeLast=1;html=1;" parent="1" vertex="1">
          <mxGeometry x="-173" y="542" width="286" height="181" as="geometry" />
        </mxCell>
        <mxCell id="6w6eod8Z04sfT0RVPfZF-25" value="" style="shape=tableRow;horizontal=0;startSize=0;swimlaneHead=0;swimlaneBody=0;fillColor=none;collapsible=0;dropTarget=0;points=[[0,0.5],[1,0.5]];portConstraint=eastwest;top=0;left=0;right=0;bottom=1;" parent="6w6eod8Z04sfT0RVPfZF-24" vertex="1">
          <mxGeometry y="30" width="286" height="30" as="geometry" />
        </mxCell>
        <mxCell id="6w6eod8Z04sfT0RVPfZF-26" value="PK" style="shape=partialRectangle;connectable=0;fillColor=none;top=0;left=0;bottom=0;right=0;fontStyle=1;overflow=hidden;whiteSpace=wrap;html=1;" parent="6w6eod8Z04sfT0RVPfZF-25" vertex="1">
          <mxGeometry width="30" height="30" as="geometry">
            <mxRectangle width="30" height="30" as="alternateBounds" />
          </mxGeometry>
        </mxCell>
        <mxCell id="6w6eod8Z04sfT0RVPfZF-27" value="pro_id varchar(50)" style="shape=partialRectangle;connectable=0;fillColor=none;top=0;left=0;bottom=0;right=0;align=left;spacingLeft=6;fontStyle=5;overflow=hidden;whiteSpace=wrap;html=1;" parent="6w6eod8Z04sfT0RVPfZF-25" vertex="1">
          <mxGeometry x="30" width="256" height="30" as="geometry">
            <mxRectangle width="256" height="30" as="alternateBounds" />
          </mxGeometry>
        </mxCell>
        <mxCell id="6w6eod8Z04sfT0RVPfZF-28" value="" style="shape=tableRow;horizontal=0;startSize=0;swimlaneHead=0;swimlaneBody=0;fillColor=none;collapsible=0;dropTarget=0;points=[[0,0.5],[1,0.5]];portConstraint=eastwest;top=0;left=0;right=0;bottom=0;" parent="6w6eod8Z04sfT0RVPfZF-24" vertex="1">
          <mxGeometry y="60" width="286" height="30" as="geometry" />
        </mxCell>
        <mxCell id="6w6eod8Z04sfT0RVPfZF-29" value="" style="shape=partialRectangle;connectable=0;fillColor=none;top=0;left=0;bottom=0;right=0;editable=1;overflow=hidden;whiteSpace=wrap;html=1;" parent="6w6eod8Z04sfT0RVPfZF-28" vertex="1">
          <mxGeometry width="30" height="30" as="geometry">
            <mxRectangle width="30" height="30" as="alternateBounds" />
          </mxGeometry>
        </mxCell>
        <mxCell id="6w6eod8Z04sfT0RVPfZF-30" value="name varchar(100) not null" style="shape=partialRectangle;connectable=0;fillColor=none;top=0;left=0;bottom=0;right=0;align=left;spacingLeft=6;overflow=hidden;whiteSpace=wrap;html=1;" parent="6w6eod8Z04sfT0RVPfZF-28" vertex="1">
          <mxGeometry x="30" width="256" height="30" as="geometry">
            <mxRectangle width="256" height="30" as="alternateBounds" />
          </mxGeometry>
        </mxCell>
        <mxCell id="6w6eod8Z04sfT0RVPfZF-31" value="" style="shape=tableRow;horizontal=0;startSize=0;swimlaneHead=0;swimlaneBody=0;fillColor=none;collapsible=0;dropTarget=0;points=[[0,0.5],[1,0.5]];portConstraint=eastwest;top=0;left=0;right=0;bottom=0;" parent="6w6eod8Z04sfT0RVPfZF-24" vertex="1">
          <mxGeometry y="90" width="286" height="31" as="geometry" />
        </mxCell>
        <mxCell id="6w6eod8Z04sfT0RVPfZF-32" value="" style="shape=partialRectangle;connectable=0;fillColor=none;top=0;left=0;bottom=0;right=0;editable=1;overflow=hidden;whiteSpace=wrap;html=1;" parent="6w6eod8Z04sfT0RVPfZF-31" vertex="1">
          <mxGeometry width="30" height="31" as="geometry">
            <mxRectangle width="30" height="31" as="alternateBounds" />
          </mxGeometry>
        </mxCell>
        <mxCell id="6w6eod8Z04sfT0RVPfZF-33" value="price int not null" style="shape=partialRectangle;connectable=0;fillColor=none;top=0;left=0;bottom=0;right=0;align=left;spacingLeft=6;overflow=hidden;whiteSpace=wrap;html=1;" parent="6w6eod8Z04sfT0RVPfZF-31" vertex="1">
          <mxGeometry x="30" width="256" height="31" as="geometry">
            <mxRectangle width="256" height="31" as="alternateBounds" />
          </mxGeometry>
        </mxCell>
        <mxCell id="6w6eod8Z04sfT0RVPfZF-34" value="" style="shape=tableRow;horizontal=0;startSize=0;swimlaneHead=0;swimlaneBody=0;fillColor=none;collapsible=0;dropTarget=0;points=[[0,0.5],[1,0.5]];portConstraint=eastwest;top=0;left=0;right=0;bottom=0;" parent="6w6eod8Z04sfT0RVPfZF-24" vertex="1">
          <mxGeometry y="121" width="286" height="30" as="geometry" />
        </mxCell>
        <mxCell id="6w6eod8Z04sfT0RVPfZF-35" value="" style="shape=partialRectangle;connectable=0;fillColor=none;top=0;left=0;bottom=0;right=0;editable=1;overflow=hidden;whiteSpace=wrap;html=1;" parent="6w6eod8Z04sfT0RVPfZF-34" vertex="1">
          <mxGeometry width="30" height="30" as="geometry">
            <mxRectangle width="30" height="30" as="alternateBounds" />
          </mxGeometry>
        </mxCell>
        <mxCell id="6w6eod8Z04sfT0RVPfZF-36" value="stock int default 0" style="shape=partialRectangle;connectable=0;fillColor=none;top=0;left=0;bottom=0;right=0;align=left;spacingLeft=6;overflow=hidden;whiteSpace=wrap;html=1;" parent="6w6eod8Z04sfT0RVPfZF-34" vertex="1">
          <mxGeometry x="30" width="256" height="30" as="geometry">
            <mxRectangle width="256" height="30" as="alternateBounds" />
          </mxGeometry>
        </mxCell>
        <mxCell id="6w6eod8Z04sfT0RVPfZF-56" style="shape=tableRow;horizontal=0;startSize=0;swimlaneHead=0;swimlaneBody=0;fillColor=none;collapsible=0;dropTarget=0;points=[[0,0.5],[1,0.5]];portConstraint=eastwest;top=0;left=0;right=0;bottom=0;" parent="6w6eod8Z04sfT0RVPfZF-24" vertex="1">
          <mxGeometry y="151" width="286" height="30" as="geometry" />
        </mxCell>
        <mxCell id="6w6eod8Z04sfT0RVPfZF-57" style="shape=partialRectangle;connectable=0;fillColor=none;top=0;left=0;bottom=0;right=0;editable=1;overflow=hidden;whiteSpace=wrap;html=1;" parent="6w6eod8Z04sfT0RVPfZF-56" vertex="1">
          <mxGeometry width="30" height="30" as="geometry">
            <mxRectangle width="30" height="30" as="alternateBounds" />
          </mxGeometry>
        </mxCell>
        <mxCell id="6w6eod8Z04sfT0RVPfZF-58" value="status tinyint(1) default 1" style="shape=partialRectangle;connectable=0;fillColor=none;top=0;left=0;bottom=0;right=0;align=left;spacingLeft=6;overflow=hidden;whiteSpace=wrap;html=1;" parent="6w6eod8Z04sfT0RVPfZF-56" vertex="1">
          <mxGeometry x="30" width="256" height="30" as="geometry">
            <mxRectangle width="256" height="30" as="alternateBounds" />
          </mxGeometry>
        </mxCell>
        <mxCell id="6w6eod8Z04sfT0RVPfZF-37" value="sales" style="shape=table;startSize=30;container=1;collapsible=1;childLayout=tableLayout;fixedRows=1;rowLines=0;fontStyle=1;align=center;resizeLast=1;html=1;" parent="1" vertex="1">
          <mxGeometry x="307" y="286" width="283" height="177" as="geometry" />
        </mxCell>
        <mxCell id="6w6eod8Z04sfT0RVPfZF-38" value="" style="shape=tableRow;horizontal=0;startSize=0;swimlaneHead=0;swimlaneBody=0;fillColor=none;collapsible=0;dropTarget=0;points=[[0,0.5],[1,0.5]];portConstraint=eastwest;top=0;left=0;right=0;bottom=1;" parent="6w6eod8Z04sfT0RVPfZF-37" vertex="1">
          <mxGeometry y="30" width="283" height="30" as="geometry" />
        </mxCell>
        <mxCell id="6w6eod8Z04sfT0RVPfZF-39" value="PK" style="shape=partialRectangle;connectable=0;fillColor=none;top=0;left=0;bottom=0;right=0;fontStyle=1;overflow=hidden;whiteSpace=wrap;html=1;" parent="6w6eod8Z04sfT0RVPfZF-38" vertex="1">
          <mxGeometry width="30" height="30" as="geometry">
            <mxRectangle width="30" height="30" as="alternateBounds" />
          </mxGeometry>
        </mxCell>
        <mxCell id="6w6eod8Z04sfT0RVPfZF-40" value="sale_id int auto_increment" style="shape=partialRectangle;connectable=0;fillColor=none;top=0;left=0;bottom=0;right=0;align=left;spacingLeft=6;fontStyle=5;overflow=hidden;whiteSpace=wrap;html=1;" parent="6w6eod8Z04sfT0RVPfZF-38" vertex="1">
          <mxGeometry x="30" width="253" height="30" as="geometry">
            <mxRectangle width="253" height="30" as="alternateBounds" />
          </mxGeometry>
        </mxCell>
        <mxCell id="6w6eod8Z04sfT0RVPfZF-41" value="" style="shape=tableRow;horizontal=0;startSize=0;swimlaneHead=0;swimlaneBody=0;fillColor=none;collapsible=0;dropTarget=0;points=[[0,0.5],[1,0.5]];portConstraint=eastwest;top=0;left=0;right=0;bottom=0;" parent="6w6eod8Z04sfT0RVPfZF-37" vertex="1">
          <mxGeometry y="60" width="283" height="27" as="geometry" />
        </mxCell>
        <mxCell id="6w6eod8Z04sfT0RVPfZF-42" value="" style="shape=partialRectangle;connectable=0;fillColor=none;top=0;left=0;bottom=0;right=0;editable=1;overflow=hidden;whiteSpace=wrap;html=1;" parent="6w6eod8Z04sfT0RVPfZF-41" vertex="1">
          <mxGeometry width="30" height="27" as="geometry">
            <mxRectangle width="30" height="27" as="alternateBounds" />
          </mxGeometry>
        </mxCell>
        <mxCell id="6w6eod8Z04sfT0RVPfZF-43" value="cus_id varchar(50) (fk)" style="shape=partialRectangle;connectable=0;fillColor=none;top=0;left=0;bottom=0;right=0;align=left;spacingLeft=6;overflow=hidden;whiteSpace=wrap;html=1;" parent="6w6eod8Z04sfT0RVPfZF-41" vertex="1">
          <mxGeometry x="30" width="253" height="27" as="geometry">
            <mxRectangle width="253" height="27" as="alternateBounds" />
          </mxGeometry>
        </mxCell>
        <mxCell id="6w6eod8Z04sfT0RVPfZF-44" value="" style="shape=tableRow;horizontal=0;startSize=0;swimlaneHead=0;swimlaneBody=0;fillColor=none;collapsible=0;dropTarget=0;points=[[0,0.5],[1,0.5]];portConstraint=eastwest;top=0;left=0;right=0;bottom=0;" parent="6w6eod8Z04sfT0RVPfZF-37" vertex="1">
          <mxGeometry y="87" width="283" height="30" as="geometry" />
        </mxCell>
        <mxCell id="6w6eod8Z04sfT0RVPfZF-45" value="" style="shape=partialRectangle;connectable=0;fillColor=none;top=0;left=0;bottom=0;right=0;editable=1;overflow=hidden;whiteSpace=wrap;html=1;" parent="6w6eod8Z04sfT0RVPfZF-44" vertex="1">
          <mxGeometry width="30" height="30" as="geometry">
            <mxRectangle width="30" height="30" as="alternateBounds" />
          </mxGeometry>
        </mxCell>
        <mxCell id="6w6eod8Z04sfT0RVPfZF-46" value="pro_id&amp;nbsp; varchar(50) (fk)" style="shape=partialRectangle;connectable=0;fillColor=none;top=0;left=0;bottom=0;right=0;align=left;spacingLeft=6;overflow=hidden;whiteSpace=wrap;html=1;" parent="6w6eod8Z04sfT0RVPfZF-44" vertex="1">
          <mxGeometry x="30" width="253" height="30" as="geometry">
            <mxRectangle width="253" height="30" as="alternateBounds" />
          </mxGeometry>
        </mxCell>
        <mxCell id="6w6eod8Z04sfT0RVPfZF-53" style="shape=tableRow;horizontal=0;startSize=0;swimlaneHead=0;swimlaneBody=0;fillColor=none;collapsible=0;dropTarget=0;points=[[0,0.5],[1,0.5]];portConstraint=eastwest;top=0;left=0;right=0;bottom=0;" parent="6w6eod8Z04sfT0RVPfZF-37" vertex="1">
          <mxGeometry y="117" width="283" height="30" as="geometry" />
        </mxCell>
        <mxCell id="6w6eod8Z04sfT0RVPfZF-54" style="shape=partialRectangle;connectable=0;fillColor=none;top=0;left=0;bottom=0;right=0;editable=1;overflow=hidden;whiteSpace=wrap;html=1;" parent="6w6eod8Z04sfT0RVPfZF-53" vertex="1">
          <mxGeometry width="30" height="30" as="geometry">
            <mxRectangle width="30" height="30" as="alternateBounds" />
          </mxGeometry>
        </mxCell>
        <mxCell id="6w6eod8Z04sfT0RVPfZF-55" value="total_price int not null" style="shape=partialRectangle;connectable=0;fillColor=none;top=0;left=0;bottom=0;right=0;align=left;spacingLeft=6;overflow=hidden;whiteSpace=wrap;html=1;" parent="6w6eod8Z04sfT0RVPfZF-53" vertex="1">
          <mxGeometry x="30" width="253" height="30" as="geometry">
            <mxRectangle width="253" height="30" as="alternateBounds" />
          </mxGeometry>
        </mxCell>
        <mxCell id="6w6eod8Z04sfT0RVPfZF-62" style="shape=tableRow;horizontal=0;startSize=0;swimlaneHead=0;swimlaneBody=0;fillColor=none;collapsible=0;dropTarget=0;points=[[0,0.5],[1,0.5]];portConstraint=eastwest;top=0;left=0;right=0;bottom=0;" parent="6w6eod8Z04sfT0RVPfZF-37" vertex="1">
          <mxGeometry y="147" width="283" height="30" as="geometry" />
        </mxCell>
        <mxCell id="6w6eod8Z04sfT0RVPfZF-63" style="shape=partialRectangle;connectable=0;fillColor=none;top=0;left=0;bottom=0;right=0;editable=1;overflow=hidden;whiteSpace=wrap;html=1;" parent="6w6eod8Z04sfT0RVPfZF-62" vertex="1">
          <mxGeometry width="30" height="30" as="geometry">
            <mxRectangle width="30" height="30" as="alternateBounds" />
          </mxGeometry>
        </mxCell>
        <mxCell id="6w6eod8Z04sfT0RVPfZF-64" value="sales_date&amp;nbsp; date" style="shape=partialRectangle;connectable=0;fillColor=none;top=0;left=0;bottom=0;right=0;align=left;spacingLeft=6;overflow=hidden;whiteSpace=wrap;html=1;" parent="6w6eod8Z04sfT0RVPfZF-62" vertex="1">
          <mxGeometry x="30" width="253" height="30" as="geometry">
            <mxRectangle width="253" height="30" as="alternateBounds" />
          </mxGeometry>
        </mxCell>
        <mxCell id="6w6eod8Z04sfT0RVPfZF-60" value="" style="edgeStyle=entityRelationEdgeStyle;fontSize=12;html=1;endArrow=ERoneToMany;rounded=0;startSize=8;endSize=8;curved=0;entryX=0;entryY=0.5;entryDx=0;entryDy=0;" parent="1" target="6w6eod8Z04sfT0RVPfZF-44" edge="1">
          <mxGeometry width="100" height="100" relative="1" as="geometry">
            <mxPoint x="111" y="587" as="sourcePoint" />
            <mxPoint x="211" y="487" as="targetPoint" />
          </mxGeometry>
        </mxCell>
        <mxCell id="6w6eod8Z04sfT0RVPfZF-61" value="" style="edgeStyle=entityRelationEdgeStyle;fontSize=12;html=1;endArrow=ERoneToMany;rounded=0;startSize=8;endSize=8;curved=0;entryX=0;entryY=0.5;entryDx=0;entryDy=0;" parent="1" target="6w6eod8Z04sfT0RVPfZF-41" edge="1">
          <mxGeometry width="100" height="100" relative="1" as="geometry">
            <mxPoint x="112" y="334" as="sourcePoint" />
            <mxPoint x="212" y="234" as="targetPoint" />
          </mxGeometry>
        </mxCell>
      </root>
    </mxGraphModel>
  </diagram>
</mxfile>
